<?xml version="1.0" standalone="no"?>
<!DOCTYPE svg PUBLIC "-//W3C//DTD SVG 20010904//EN"
 "http://www.w3.org/TR/2001/REC-SVG-20010904/DTD/svg10.dtd">
<svg version="1.0" xmlns="http://www.w3.org/2000/svg"
 width="387.000000pt" height="122.000000pt" viewBox="0 0 387.000000 122.000000"
 preserveAspectRatio="xMidYMid meet">

<g transform="translate(0.000000,122.000000) scale(0.100000,-0.100000)"
fill="#000000" stroke="none">
<path d="M130 1020 c0 -57 1 -60 19 -50 11 5 73 23 138 39 102 24 118 31 121
50 3 21 1 21 -137 21 l-141 0 0 -60z"/>
<path d="M480 1064 c0 -12 6 -15 23 -10 12 3 41 6 65 6 23 0 42 5 42 10 0 6
-28 10 -65 10 -53 0 -65 -3 -65 -16z"/>
<path d="M836 1071 c-3 -4 36 -11 87 -15 51 -3 132 -15 181 -26 50 -11 91 -20
93 -20 9 0 1 48 -9 58 -14 14 -344 17 -352 3z"/>
<path d="M1270 1036 c0 -43 1 -44 45 -58 l45 -15 0 58 0 59 -45 0 -45 0 0 -44z"/>
<path d="M1462 1003 l3 -76 43 -18 42 -18 0 94 0 95 -45 0 -46 0 3 -77z"/>
<path d="M1640 967 l0 -113 45 -22 c25 -12 48 -22 50 -22 3 0 5 61 5 135 l0
135 -50 0 -50 0 0 -113z"/>
<path d="M1835 1055 c-24 -23 -25 -29 -25 -157 l0 -133 40 -22 c21 -13 41 -23
44 -23 4 0 6 44 6 99 0 109 8 125 57 119 l28 -3 3 -137 3 -137 49 -30 50 -31
0 158 c0 110 4 162 12 170 19 19 66 15 78 -7 6 -12 10 -95 10 -200 l0 -181 40
-20 c21 -11 42 -20 45 -20 3 0 5 117 5 259 l0 259 -26 31 -26 31 -184 0 c-183
0 -185 0 -209 -25z"/>
<path d="M2400 1054 c-6 -14 -10 -99 -10 -190 0 -157 -1 -164 -20 -164 -18 0
-20 -7 -20 -85 0 -78 2 -85 20 -85 18 0 20 -7 20 -59 l0 -58 43 -7 c23 -4 57
-9 75 -12 l32 -6 0 71 0 71 45 0 45 0 0 -74 c0 -50 4 -75 13 -78 6 -3 37 -2
67 1 l55 6 3 73 c3 69 4 72 27 72 25 0 25 1 25 85 0 84 0 85 -25 85 l-25 0 0
178 c0 125 -4 182 -12 190 -8 8 -63 12 -180 12 l-168 0 -10 -26z m218 -126 c8
-8 12 -49 12 -120 l0 -108 -45 0 -45 0 0 113 c0 63 3 117 7 120 11 11 58 8 71
-5z"/>
<path d="M2897 1074 c-8 -9 -10 -624 -2 -624 3 0 35 17 70 37 l65 37 2 206 3
205 28 3 c50 6 57 -10 57 -124 l0 -104 34 0 c28 0 41 8 70 42 l37 42 -3 141
-3 140 -176 3 c-96 1 -178 -1 -182 -4z"/>
<path d="M3380 1013 l0 -68 20 25 c11 14 33 44 50 68 l31 42 -50 0 -51 0 0
-67z"/>
<path d="M3618 970 c-2 -61 -1 -110 2 -110 3 1 35 39 73 86 41 53 67 95 67
110 0 23 -3 24 -69 24 l-70 0 -3 -110z"/>
<path d="M3448 950 l-68 -89 0 -80 c0 -80 0 -81 -25 -81 -25 0 -25 -1 -25 -85
0 -65 3 -85 14 -85 7 0 50 46 95 102 l81 102 0 153 c0 84 -1 153 -2 153 -2 0
-33 -41 -70 -90z"/>
<path d="M518 1003 l-38 -4 0 -140 0 -140 63 7 c34 4 65 9 70 11 4 2 7 65 7
139 l0 134 -32 -2 c-18 -1 -50 -3 -70 -5z"/>
<path d="M820 881 c0 -146 -4 -141 93 -141 l47 0 0 88 c0 95 7 112 50 112 43
0 50 -16 50 -121 l0 -96 38 -6 c20 -4 52 -9 70 -13 l32 -6 0 129 0 130 -82 16
c-86 17 -236 37 -275 37 -23 0 -23 -1 -23 -129z"/>
<path d="M345 973 c-11 -2 -64 -18 -117 -34 l-98 -30 0 -144 0 -144 58 19 c31
10 84 27 117 37 l60 18 -47 3 -48 3 0 100 0 99 70 0 70 0 0 40 c0 42 -8 46
-65 33z"/>
<path d="M3688 865 c-59 -73 -68 -90 -68 -125 0 -38 -1 -40 -32 -40 -30 0 -42
-11 -120 -109 l-88 -110 0 -170 0 -171 70 0 70 0 0 195 0 195 45 0 45 0 0
-195 0 -195 75 0 75 0 0 195 c0 188 1 195 20 195 18 0 20 7 20 85 0 78 -2 85
-20 85 -18 0 -20 8 -22 125 l-3 124 -67 -84z"/>
<path d="M1270 805 l0 -124 38 -10 c20 -6 40 -11 45 -11 4 0 7 56 7 123 l0
124 -39 11 c-21 7 -41 12 -45 12 -3 0 -6 -56 -6 -125z"/>
<path d="M1460 746 l0 -124 40 -16 c22 -9 43 -16 46 -16 2 0 3 55 2 122 l-3
121 -42 18 -43 18 0 -123z"/>
<path d="M1640 670 l0 -120 50 -25 51 -26 -3 122 -3 122 -40 23 c-22 13 -43
23 -47 24 -5 0 -8 -54 -8 -120z"/>
<path d="M1810 582 l0 -118 38 -19 c20 -11 40 -21 45 -23 4 -2 7 50 7 115 l0
118 -40 23 c-21 12 -41 22 -44 22 -4 0 -6 -53 -6 -118z"/>
<path d="M820 433 c0 -239 1 -261 18 -276 16 -14 43 -17 174 -17 137 0 157 2
171 18 15 16 17 49 17 250 l0 232 -22 4 c-13 3 -44 9 -70 14 l-48 10 0 -178
c0 -166 -1 -178 -21 -196 -19 -17 -23 -17 -47 -3 l-27 15 -3 187 -2 187 -33 0
c-17 0 -49 3 -69 6 l-38 7 0 -260z"/>
<path d="M523 673 l-43 -4 0 -265 0 -264 135 0 135 0 0 95 0 95 -65 0 -65 0 0
175 0 175 -27 -2 c-16 -1 -47 -3 -70 -5z"/>
<path d="M245 607 l-110 -33 -3 -217 -2 -217 70 0 70 0 0 195 0 195 45 0 45 0
0 55 c0 30 -1 55 -2 54 -2 0 -52 -15 -113 -32z"/>
<path d="M1270 414 c0 -122 4 -213 10 -225 22 -41 60 -49 225 -49 226 0 235 7
235 193 l0 113 -44 21 c-24 12 -47 19 -50 16 -3 -4 -6 -46 -6 -95 0 -85 -1
-89 -25 -100 -21 -9 -28 -8 -45 7 -17 15 -20 33 -22 128 l-3 110 -42 18 -43
18 0 -124 c0 -112 -2 -127 -20 -145 -25 -25 -42 -25 -63 -2 -14 15 -17 42 -17
159 l0 141 -31 11 c-61 21 -59 29 -59 -195z"/>
<path d="M1990 483 l0 -118 45 -28 c25 -15 48 -27 50 -27 3 0 5 53 5 118 l0
117 -50 28 -50 28 0 -118z"/>
<path d="M3120 410 c0 -107 -1 -111 -24 -121 -17 -8 -29 -8 -45 0 -19 10 -21
20 -21 86 0 41 -3 75 -7 75 -5 0 -35 -15 -68 -34 l-60 -33 -3 -109 c-3 -122 3
-134 66 -134 31 0 49 14 168 134 l134 133 0 57 0 56 -70 0 -70 0 0 -110z"/>
<path d="M2187 364 l2 -116 38 -24 c21 -13 41 -24 46 -24 4 0 7 53 7 118 l0
118 -45 22 c-25 12 -47 22 -48 22 -1 0 -1 -52 0 -116z"/>
<path d="M1810 275 l0 -135 45 0 45 0 0 108 -1 107 -44 27 -45 27 0 -134z"/>
<path d="M2390 251 l0 -111 75 0 75 0 0 94 c0 104 4 98 -75 111 -22 3 -48 8
-57 11 -16 5 -18 -5 -18 -105z"/>
<path d="M2683 323 l-53 -4 0 -90 0 -89 70 0 70 0 0 95 c0 85 -2 95 -17 93
-10 -1 -42 -3 -70 -5z"/>
<path d="M3160 235 l-95 -95 81 0 c111 0 116 5 112 108 l-3 83 -95 -96z"/>
<path d="M1990 221 l0 -81 50 0 50 0 0 53 0 52 -50 28 -50 28 0 -80z"/>
<path d="M2190 160 c0 -16 7 -20 33 -20 l32 0 -25 20 c-32 25 -40 25 -40 0z"/>
</g>
</svg>
