<?xml version="1.0" standalone="no"?>
<!DOCTYPE svg PUBLIC "-//W3C//DTD SVG 20010904//EN"
 "http://www.w3.org/TR/2001/REC-SVG-20010904/DTD/svg10.dtd">
<svg version="1.0" xmlns="http://www.w3.org/2000/svg"
 width="1080.000000pt" height="1080.000000pt" viewBox="0 0 1080.000000 1080.000000"
 preserveAspectRatio="xMidYMid meet">

<g transform="translate(0.000000,1080.000000) scale(0.100000,-0.100000)"
fill="#000000" stroke="none">
<path d="M4542 9093 c4 -597 -2 -578 155 -509 143 63 691 217 1318 371 685
168 846 223 930 316 36 41 55 92 55 152 0 53 -13 72 -60 91 -87 35 -190 38
-1303 43 l-1098 5 3 -469z"/>
<path d="M6625 8650 c-173 -31 -320 -70 -810 -217 -308 -91 -1269 -384 -1273
-387 -1 -2 -1 -574 0 -1273 l3 -1271 440 143 c577 188 857 276 1270 400 395
119 397 106 -20 131 -148 8 -313 19 -365 22 l-95 7 -3 883 -2 882 621 0 621 0
-4 278 c-3 272 -3 278 -28 327 -48 95 -139 114 -355 75z"/>
<path d="M6120 5534 c-498 -143 -1517 -446 -1528 -453 -11 -7 -51 -2808 -52
-3638 l0 -203 615 0 615 0 0 1725 0 1725 400 0 400 0 0 373 c0 206 -3 422 -7
480 -6 100 -7 107 -27 106 -12 0 -199 -52 -416 -115z"/>
</g>
</svg>
